<?xml version="1.0" standalone="no"?><!-- Generator: Gravit.io --><svg xmlns="http://www.w3.org/2000/svg" xmlns:xlink="http://www.w3.org/1999/xlink" style="isolation:isolate" viewBox="0 0 32 32" width="32" height="32"><g id="icon-49-notebook"><path d=" M 7 19 L 7 22 L 6 22 L 6 23 L 7 23 L 7 23 L 7 26 L 6 26 L 6 27 L 7 27 L 7 27.993 C 7 29.101 7.891 30 8.997 30 L 24.003 30 C 25.106 30 26 29.102 26 27.993 L 26 5.007 C 26 3.899 25.109 3 24.003 3 L 8.997 3 C 7.894 3 7 3.898 7 5.007 L 7 6 L 6 6 L 6 7 L 7 7 L 7 10 L 6 10 L 6 11 L 7 11 L 7 14 L 6 14 L 6 15 L 7 15 L 7 18 L 6 18 L 6 19 L 7 19 L 7 19 L 7 19 Z  M 8 19 L 8 22 L 9 22 L 9 23 L 8 23 L 8 26 L 9 26 L 9 27 L 8 27 L 8 28.005 C 8 28.554 8.455 29 9 29 L 24 29 C 24.552 29 25 28.545 25 28.005 L 25 4.995 C 25 4.446 24.545 4 24 4 L 9 4 C 8.448 4 8 4.455 8 4.995 L 8 6 L 9 6 L 9 7 L 8 7 L 8 10 L 9 10 L 9 11 L 8 11 L 8 14 L 9 14 L 9 15 L 8 15 L 8 15 L 8 18 L 9 18 L 9 19 L 8 19 L 8 19 L 8 19 Z  M 12 8 L 12 13 L 21 13 L 21 8 L 12 8 L 12 8 L 12 8 Z  M 13 9 L 13 12 L 20 12 L 20 9 L 13 9 L 13 9 L 13 9 Z " fill-rule="evenodd" fill="rgb(255,0,0)"/></g><g id="lock"><path d=" M 16.5 18 C 14.569 18 13 19.571 13 21.5 C 13 23.431 14.569 25 16.5 25 C 18.429 25 20 23.431 20 21.5 C 20 19.571 18.429 18 16.5 18 Z  M 17.315 23.542 L 15.678 23.542 L 15.923 21.335 C 15.634 21.147 15.459 20.828 15.459 20.479 C 15.459 19.916 15.917 19.458 16.48 19.458 C 17.043 19.458 17.5 19.916 17.5 20.479 C 17.5 20.813 17.337 21.124 17.069 21.313 L 17.315 23.542 Z " fill="rgb(255,0,0)"/></g></svg>